<?xml version="1.0" encoding="UTF-8"?>
<svg width="54px" height="38px" viewBox="0 0 54 38" version="1.1" xmlns="http://www.w3.org/2000/svg" xmlns:xlink="http://www.w3.org/1999/xlink">
    <!-- Generator: Sketch 52.1 (67048) - http://www.bohemiancoding.com/sketch -->
    <title>Combined-Shape</title>
    <desc>Created with Sketch.</desc>
    <g id="Page-2" stroke="none" stroke-width="1" fill="none" fill-rule="evenodd">
        <g id="Desktop-HD-Copy-2" transform="translate(-693.000000, -42.000000)" fill="#FFFFFF" fill-rule="nonzero">
            <path d="M710.252312,67.2032992 L722.731754,55.9667591 C725.238691,53.2585419 728.824154,51.5631594 732.805596,51.5631594 C740.38529,51.5631594 746.529847,57.7077162 746.529847,65.2874111 C746.529847,72.8671059 740.38529,79.0116626 732.805596,79.0116626 C727.179369,79.0116626 722.343866,75.6261727 720.22512,70.7812259 L711.760854,78.4024855 C711.259384,78.9777563 710.609456,79.437851 709.841579,79.717335 C707.420021,80.5987102 704.742464,79.3501451 703.861089,76.9285866 L698.350508,61.7883895 C697.469133,59.3668311 698.717698,56.6892743 701.139256,55.8078992 C703.560815,54.9265239 706.238371,56.1750891 707.119747,58.5966475 L710.252312,67.2032992 Z M732.961553,60.9206038 C730.463699,60.9206038 728.438788,62.9455145 728.438788,65.4433685 C728.438788,67.9412225 730.463699,69.9661333 732.961553,69.9661333 C735.459407,69.9661333 737.484318,67.9412225 737.484318,65.4433685 C737.484318,62.9455145 735.459407,60.9206038 732.961553,60.9206038 Z M697.666015,42 C700.242983,42 702.332029,44.0890459 702.332029,46.6660146 C702.332029,49.2429832 700.242983,51.3320291 697.666015,51.3320291 C695.089046,51.3320291 693,49.2429832 693,46.6660146 C693,44.0890459 695.089046,42 697.666015,42 Z" id="Combined-Shape"></path>
        </g>
    </g>
</svg>